<svg width="32" height="32" viewBox="0 0 32 32" fill="none" xmlns="http://www.w3.org/2000/svg">
<g clip-path="url(#clip0_3637_40966)">
<path fill-rule="evenodd" clip-rule="evenodd" d="M25.5781 5L30.6388 10.0607L25.5781 15.1213L24.5175 14.0607L27.5968 10.9825H20V9.48246H27.9382L24.5175 6.06066L25.5781 5ZM2 9.48246V24.9825H29.5V16.4825H28V23.4825H3.5V10.9825H16.5V9.48246H2ZM12 17.2325C12 15.1614 13.6789 13.4825 15.75 13.4825C17.8211 13.4825 19.5 15.1614 19.5 17.2325C19.5 19.3035 17.8211 20.9825 15.75 20.9825C13.6789 20.9825 12 19.3035 12 17.2325ZM18 17.2325C18 15.9898 16.9926 14.9825 15.75 14.9825C14.5074 14.9825 13.5 15.9898 13.5 17.2325C13.5 18.4751 14.5074 19.4825 15.75 19.4825C16.9926 19.4825 18 18.4751 18 17.2325Z" fill="green" fill-opacity="0.9"/>
<rect x="6.75" y="16.2322" width="2" height="2" fill="green" fill-opacity="0.9"/>
<rect x="22.75" y="16.2322" width="2" height="2" fill="green" fill-opacity="0.9"/>
</g>
<defs>
<clipPath id="clip0_3637_40966">
<rect width="32" height="32" fill="white"/>
</clipPath>
</defs>
</svg>
